# xmcd
#
# Track frame offsets: 
#        150
#        26411
#        48651
#        67821
#        87199
#        110475
#        129726
#        150074
#        167597
#        188770
#        211602
#        229703
#        249302
#        265251
#        284835
#        300214
#        316377
#
# Disc length: 4439 seconds
#
# Revision: 0
# Processed by: cddbd v1.5.2PL0 Copyright (c) Steve Scherf et al.
# Submitted via: ExactAudioCopy v0.95a4
#
DISCID=d6115511
DTITLE=Various Artist - LOVE 101 - 101 Ways to Say I Love You [CD2)
DYEAR=2009
DGENRE=Pop
TTITLE0=Karyn White - Superwoman
TTITLE1=Paula Abdul - Rush Rush
TTITLE2=Michael Leams To Rock - That's Why You Go Away
TTITLE3=The Corrs - What Can I Do
TTITLE4=Sinead O'Connor - Nothing Compares 2 U
TTITLE5=George Michael - Jesus To A Child
TTITLE6=Simply Red - Holding Back The Years
TTITLE7=Culture CLUB - Love Is Love
TTITLE8=M2M - Pretty Boy
TTITLE9=Stevie B - Because I Love You(The Postman Song)
TTITLE10=Donna Lewis - I Love You(Always And Forever)
TTITLE11=Jon Secada - Just Another Day
TTITLE12=Timmy T - One More Try
TTITLE13=James Blunt - Goodbye My Lover
TTITLE14=Tommy Page - A Shoulder To Cry On
TTITLE15=Debbie Gibson - Lost In Your Eyes
TTITLE16=Wilson Phillips - Hold On
EXTD=
EXTT0=
EXTT1=
EXTT2=
EXTT3=
EXTT4=
EXTT5=
EXTT6=
EXTT7=
EXTT8=
EXTT9=
EXTT10=
EXTT11=
EXTT12=
EXTT13=
EXTT14=
EXTT15=
EXTT16=
PLAYORDER=
